<svg id="Ebene_1" data-name="Ebene 1" xmlns="http://www.w3.org/2000/svg" viewBox="0 0 101 39">
  <defs>
    <style>
      .cls-1 {
        fill: #fb2823;
      }
    </style>
  </defs>
  <title>target_oe_rot</title>
  <path class="cls-1" d="M10.85,19.53a8.5,8.5,0,1,0,8.5-8.5,8.49,8.49,0,0,0-8.5,8.5h0Zm-5.4,0a13.9,13.9,0,1,1,13.9,13.9,13.87,13.87,0,0,1-13.9-13.9h0Z"/>
  <path class="cls-1" d="M14.75,19.53a4.5,4.5,0,1,1,4.5,4.5,4.48,4.48,0,0,1-4.5-4.5h0Z"/>
  <g>
    <path d="M44.18,29.26c-3.85,0-6.37-3-6.37-9.49s2.52-9.49,6.37-9.49,6.34,3,6.34,9.49S48,29.26,44.18,29.26Zm0-16.87c-2.57,0-3.93,2.42-3.93,7.38s1.35,7.38,3.93,7.38,3.9-2.42,3.9-7.38S46.75,12.38,44.18,12.38Z"/>
    <path d="M65.24,29H62.61l-2.08-4.32a6.84,6.84,0,0,0-2.16-2.94H56.32V29H54V10.54h4c3.82,0,5.75,1.48,5.75,5.51a5.21,5.21,0,0,1-3,5,7.07,7.07,0,0,1,1.92,2.55ZM58,12.59H56.32v7.07h1.51a3.26,3.26,0,0,0,3.51-3.61C61.34,13.27,60,12.59,58,12.59Z"/>
    <path d="M75.22,12.64H69.89v6.5h5v2.11h-5V29H67.55V10.54h7.67v2.11Z"/>
    <path d="M77.1,29.26a1.69,1.69,0,1,1,0-3.38A1.69,1.69,0,1,1,77.1,29.26Z"/>
    <path d="M89.94,29H87.78l-0.08-.83a4.72,4.72,0,0,1-2.78,1.09c-1.82,0-3.67-1.07-3.67-4.24s1.77-4.45,4.68-4.45H87.6V19.48c0-1.87-.83-2.65-2.34-2.65a12.74,12.74,0,0,0-2.89.44l-0.18-2.08a10.35,10.35,0,0,1,3.07-.49c3.12,0,4.68,1.46,4.68,4.81V29ZM87.6,22.32H86c-1.2,0-2.29.65-2.29,2.57s0.68,2.39,1.64,2.39a5,5,0,0,0,2.26-.81V22.32Z"/>
    <path d="M100.39,29a8.73,8.73,0,0,1-2.08.29c-2.16,0-3.69-1.14-3.69-4.11V16.91H92.33V15h2.29V11.58l1.17-.52H97V15h3.43v1.95H97v8.32c0,1.48.78,2,1.48,2a7.62,7.62,0,0,0,1.74-.23Z"/>
  </g>
</svg>
