<svg width="228.000000pt" height="153.000000pt" viewBox="0 0 228.000000 153.000000" xmlns="http://www.w3.org/2000/svg">
  <g transform="translate(0.000000,153.000000) scale(0.100000,-0.100000)" fill="#fcfcfc" stroke="none">
    <path d="M0 765 c0 -765 0 -765 1140 -765 1140 0 1140 0 1140 765 0 765 0 765
-1140 765 -1140 0 -1140 0 -1140 -765z m1850 660 c12 -24 15 -68 13 -232 -2
-146 1 -224 12 -280 8 -43 15 -97 15 -120 0 -51 15 -93 33 -93 14 0 29 50 47
160 24 137 55 259 71 275 15 15 11 -27 -11 -91 -11 -32 -20 -70 -20 -84 0 -27
-24 -141 -47 -227 -10 -36 -20 -54 -35 -58 -11 -4 -24 -3 -28 2 -15 15 -40
116 -40 162 0 107 -32 125 -49 28 -17 -96 -39 -162 -61 -182 -17 -16 -23 -17
-45 -5 -13 7 -27 26 -30 41 -5 20 -13 29 -26 29 -10 0 -19 -6 -19 -12 0 -7 -9
-24 -20 -38 -23 -30 -25 -61 -6 -98 7 -15 26 -80 41 -145 30 -124 29 -158 -8
-181 -27 -17 -64 10 -104 76 -28 45 -35 67 -35 105 0 26 12 81 27 121 27 76
26 116 -3 110 -12 -2 -18 -15 -20 -41 -3 -30 -10 -42 -33 -56 -25 -16 -36 -17
-60 -7 -27 9 -32 8 -41 -9 -15 -26 -55 -65 -67 -65 -14 0 -51 68 -51 94 0 26
-28 115 -43 134 -5 6 -24 12 -42 12 -24 0 -37 -7 -51 -27 -15 -22 -20 -53 -24
-153 -5 -135 -21 -164 -31 -58 -6 58 -14 110 -25 166 -2 12 -10 22 -17 22 -9
0 -17 -31 -24 -97 -15 -121 -27 -165 -58 -200 -23 -28 -23 -28 -47 -5 -13 12
-31 22 -40 22 -9 0 -26 -21 -39 -47 -16 -31 -31 -49 -45 -51 -12 -2 -35 9 -53
24 -32 27 -33 27 -67 11 -19 -10 -43 -17 -54 -17 -23 0 -50 36 -50 67 0 41
-24 113 -37 113 -17 0 -72 -60 -98 -108 -12 -20 -25 -44 -30 -52 -5 -8 -10
-54 -10 -102 0 -68 -4 -91 -17 -104 -17 -17 -96 -36 -111 -27 -14 9 15 23 49
23 16 0 35 5 42 12 7 7 12 42 12 87 -1 63 -8 99 -44 206 -29 87 -49 131 -60
133 -11 3 -17 -7 -22 -36 -8 -51 -20 -70 -34 -56 -8 8 5 57 43 173 61 182 80
210 159 237 38 12 55 13 81 5 49 -17 71 -61 72 -146 0 -38 -2 -99 -4 -135 -2
-36 2 -87 9 -115 7 -27 15 -70 19 -94 3 -24 13 -48 21 -54 11 -6 27 -4 51 6
36 15 36 15 41 110 5 86 8 101 42 161 20 36 41 66 45 66 4 0 16 -9 26 -20 10
-11 24 -20 32 -20 20 0 33 -44 33 -116 0 -49 6 -75 23 -104 35 -62 54 -52 81
42 9 31 16 79 16 107 0 57 21 181 31 181 12 0 36 -36 43 -63 3 -15 12 -27 19
-27 6 1 25 19 40 41 26 37 30 40 70 37 39 -3 43 -6 65 -52 13 -27 26 -65 29
-85 7 -51 23 -91 38 -91 22 0 49 40 48 73 0 17 -5 50 -11 72 -7 22 -12 68 -12
103 0 49 4 66 20 82 11 11 33 20 50 20 28 0 30 2 30 41 0 28 4 39 12 37 7 -3
16 -20 20 -39 16 -82 31 -125 61 -180 18 -33 39 -59 48 -59 15 0 22 10 53 80
14 31 14 48 2 155 -13 105 -13 123 0 143 8 12 21 22 29 22 8 0 22 -11 31 -25
11 -18 15 -40 11 -82 -2 -32 -10 -86 -16 -120 -11 -54 -11 -69 4 -112 12 -36
22 -51 35 -51 9 0 22 6 28 13 13 15 38 116 47 187 4 30 13 81 21 113 17 66 13
103 -43 388 -6 30 20 62 46 57 9 -2 23 -17 31 -33z" />
    <path d="M1790 1415 c0 -8 5 -35 12 -60 15 -56 38 -60 38 -7 0 56 -10 82 -31
82 -11 0 -19 -7 -19 -15z" />
    <path d="M1640 1031 c0 -49 12 -91 26 -91 10 0 14 13 14 44 0 54 -8 76 -26 76
-9 0 -14 -11 -14 -29z" />
    <path d="M350 872 c-38 -18 -59 -54 -85 -142 -18 -60 -21 -48 40 -235 22 -69
37 -101 48 -103 11 -2 17 3 17 13 0 28 59 128 95 160 29 27 34 39 40 98 10 88
3 191 -14 211 -18 22 -96 21 -141 -2z" />
    <path d="M1357 853 c-17 -17 -1 -153 18 -153 15 0 35 66 35 119 0 36 -3 41
-23 41 -13 0 -27 -3 -30 -7z" />
    <path d="M1430 790 c0 -16 -4 -39 -9 -52 -5 -13 -15 -42 -21 -65 -11 -34 -11
-45 0 -58 15 -18 51 -20 68 -3 15 15 16 119 1 171 -12 45 -39 51 -39 7z" />
    <path d="M725 627 c-18 -32 -25 -58 -25 -95 0 -31 4 -52 11 -52 17 0 48 43 49
67 0 12 5 25 10 28 6 3 10 26 10 51 0 58 -21 58 -55 1z" />
    <path d="M1536 552 c-9 -32 -16 -76 -16 -97 0 -69 68 -175 104 -162 29 11 28
53 -6 183 -39 153 -56 169 -82 76z" />
    <path d="M780 544 c0 -9 -16 -41 -35 -70 -41 -61 -46 -107 -14 -124 11 -7 27
-9 34 -6 7 2 23 26 35 53 15 34 20 63 18 103 -2 43 -7 56 -20 58 -12 2 -18 -3
-18 -14z" />
  </g>
  <g transform="translate(0.000000,153.000000) scale(0.100000,-0.100000)" fill="#161616" stroke="none">
    <path d="M1775 1454 c-19 -19 -18 -30 10 -179 33 -176 35 -198 20 -255 -7 -30
-16 -80 -20 -110 -9 -71 -34 -172 -47 -187 -6 -7 -14 -13 -18 -13 -5 0 -16 22
-24 48 -13 39 -14 57 -5 97 6 28 13 85 16 127 5 73 4 78 -21 103 -15 15 -32
25 -38 23 -7 -3 -20 -15 -30 -29 -18 -23 -18 -31 -4 -148 8 -72 11 -131 6
-140 -5 -9 -17 -33 -26 -53 -9 -21 -19 -38 -23 -38 -3 0 -20 27 -38 59 -31 56
-49 110 -60 178 -6 35 -26 58 -43 48 -5 -3 -10 -24 -10 -46 0 -37 -2 -39 -30
-39 -17 0 -39 -9 -50 -20 -16 -16 -20 -33 -20 -92 0 -40 5 -91 11 -113 16 -57
14 -83 -7 -106 -17 -19 -18 -19 -28 -2 -5 10 -13 39 -17 64 -4 26 -18 68 -31
95 -23 49 -24 49 -75 52 -51 3 -53 2 -83 -39 -30 -42 -30 -42 -36 -11 -7 35
-44 75 -59 64 -15 -10 -35 -117 -35 -181 0 -54 -24 -156 -43 -179 -7 -10 -15
-4 -33 25 -18 30 -23 53 -24 105 0 74 -12 118 -33 118 -8 0 -22 9 -32 20 -32
35 -51 25 -91 -46 -33 -60 -37 -75 -42 -161 -5 -95 -5 -95 -36 -108 -20 -8
-35 -10 -42 -4 -6 5 -14 31 -17 57 -4 26 -11 67 -18 92 -6 25 -9 70 -8 100 2
30 4 91 4 135 0 99 -20 140 -78 157 -31 9 -48 8 -90 -5 -83 -26 -102 -54 -163
-237 -30 -89 -54 -167 -54 -175 0 -7 7 -19 16 -26 14 -11 18 -11 29 4 7 10 15
36 19 59 4 23 10 37 15 32 4 -5 26 -66 49 -136 32 -95 42 -142 42 -190 0 -37
-5 -69 -12 -76 -7 -7 -26 -12 -42 -12 -40 0 -61 -14 -53 -35 6 -13 15 -15 54
-9 27 3 56 11 66 16 28 14 39 56 36 133 -2 39 1 77 6 85 5 8 18 32 30 52 20
37 84 113 89 107 7 -11 26 -90 26 -110 0 -14 7 -35 16 -47 18 -26 61 -29 103
-7 26 13 30 13 42 -1 7 -8 25 -22 41 -30 38 -20 64 -5 89 52 11 24 24 44 28
44 4 0 16 -9 26 -20 10 -11 26 -20 36 -20 24 0 56 43 70 94 7 22 17 84 24 136
8 63 14 87 18 70 10 -43 18 -93 24 -160 6 -73 18 -97 39 -79 10 8 14 41 14
127 0 99 3 119 21 148 14 23 28 34 44 34 12 0 27 -6 32 -12 15 -19 43 -108 43
-134 0 -35 39 -94 61 -94 20 0 58 32 76 63 8 16 13 16 36 6 21 -10 31 -8 59 8
24 14 34 27 36 48 2 17 5 37 8 45 5 13 6 13 14 -1 6 -10 0 -39 -17 -85 -16
-43 -26 -90 -26 -126 0 -47 5 -66 34 -114 53 -88 109 -112 144 -61 8 12 15 36
15 53 0 34 -50 239 -71 290 -11 28 -10 35 9 62 12 16 22 35 22 41 0 23 19 10
25 -17 3 -16 18 -35 34 -45 27 -16 30 -16 55 4 28 22 49 80 68 189 8 49 13 60
19 45 4 -11 8 -43 8 -71 1 -56 26 -152 45 -172 10 -10 18 -11 39 -1 19 9 30
25 38 53 18 65 40 166 49 226 4 30 17 86 29 125 17 58 19 72 8 83 -11 11 -16
11 -25 -1 -19 -22 -50 -144 -73 -287 -7 -41 -18 -93 -25 -115 -12 -40 -12 -40
-23 -12 -6 16 -11 49 -11 75 0 26 -5 65 -12 87 -6 24 -11 136 -12 275 -1 188
-4 241 -16 265 -18 36 -59 45 -85 19z m49 -56 c3 -13 5 -36 5 -53 0 -27 -2
-25 -15 15 -16 53 -17 60 -5 60 5 0 11 -10 15 -22z m-155 -413 c-1 -35 -2 -37
-9 -15 -4 14 -8 39 -9 55 0 23 2 26 9 15 5 -8 9 -33 9 -55z m-1182 -135 c14
-28 16 -143 4 -209 -6 -31 -18 -53 -39 -70 -34 -28 -92 -128 -92 -157 0 -35
-18 2 -49 101 -17 55 -36 113 -41 129 -7 21 -5 44 6 80 25 84 47 120 84 139
21 10 51 16 75 15 31 -2 42 -9 52 -28z m912 -37 c0 -21 -6 -54 -13 -73 -13
-35 -13 -35 -21 22 -8 65 -3 88 20 88 11 0 15 -10 14 -37z m69 -108 c4 -58 1
-73 -13 -85 -12 -10 -21 -11 -33 -3 -19 12 -19 19 -2 78 7 22 14 58 17 79 5
34 7 37 16 21 6 -11 12 -51 15 -90z m-707 -118 c-6 -6 -11 -20 -11 -30 0 -10
-9 -30 -20 -44 -20 -26 -20 -26 -20 17 0 29 9 58 28 89 27 46 27 46 30 12 2
-18 -1 -38 -7 -44z m849 -125 c24 -97 28 -127 19 -143 -11 -21 -11 -21 -35 2
-31 29 -64 98 -64 134 0 41 31 148 41 138 4 -4 22 -63 39 -131z m-800 34 c0
-38 -27 -120 -46 -138 -12 -13 -44 12 -44 33 0 11 16 44 35 73 19 29 35 61 35
70 0 10 5 14 10 11 6 -3 10 -26 10 -49z" />
  </g>
</svg>